# xmcd
#
# Track frame offsets:
#	150
#	9277
#	24572
#	34615
#	46980
#	61430
#	71700
#	84557
#	95035
#	108097
#	118022
#	131630
#	150732
#	162527
#	174357
#	190142
#
# Disc length: 2702 seconds
#
# Revision: 0
# Processed by: cddbd v1.5.1PL2 Copyright (c) Steve Scherf et al.
# Submitted via: dBpowerAMP V4.0
#
DISCID=cf0a8c10
DTITLE=Various Artist - Country Ladies - Vol 1
DYEAR=1997
DGENRE=Country
TTITLE0=Loretta Lynn - We've come a long way, Baby
TTITLE1=Ruth Ann - The right people at the Wrong Time
TTITLE2=Crystal Gayle - Touching Me Again
TTITLE3=Donna Fargo - Funny Face
TTITLE4=Helen Cornelius - You Don't Bring Me Flowers
TTITLE5=Kitty Wells - Dust on the Bible
TTITLE6=Wilma Burgess - Baby
TTITLE7=Jan Howard - Any Old Way You Do
TTITLE8=Jeanne Pruitt - I Can't Keep my Hands off of You
TTITLE9=Loretta Lynn - You Ain't Woman Enough
TTITLE10=Jan Howard - Evil on Your Mind
TTITLE11=Nanci Griffith - Going Back to Georgia
TTITLE12=Jeanne Pruitt - Sweet Sweetheart
TTITLE13=Kitty Wells - Stand by Your Man
TTITLE14=Nanci Griffith - Late Night Grande Hotel
TTITLE15=Jan Howard - My Son
EXTD=
EXTT0=
EXTT1=
EXTT2=
EXTT3=
EXTT4=
EXTT5=
EXTT6=
EXTT7=
EXTT8=
EXTT9=
EXTT10=
EXTT11=
EXTT12=
EXTT13=
EXTT14=
EXTT15=
PLAYORDER=
